# xmcd
#
# Track frame offsets: 
#        150
#        19968
#        38848
#        60859
#        77855
#        95867
#        113098
#        132709
#        149511
#        167864
#        187554
#        201936
#        218177
#        244048
#
# Disc length: 3573 seconds
#
# Revision: 0
# Processed by: cddbd v1.5.2PL0 Copyright (c) Steve Scherf et al.
# Submitted via: ExactAudioCopy v1.2
#
DISCID=c90df30e
DTITLE=Charlie Landsborough - Songs From The Heart and What Colour Is Th
DTITLE=e Wind, CD2
DYEAR=2010
DGENRE=Country
TTITLE0=A Million Ways To Fall
TTITLE1=My Forever Friend
TTITLE2=Song Of The Ocean
TTITLE3=When You're Not A Dream
TTITLE4=What Colour Is The Wind
TTITLE5=Once Bitten Twice Shy
TTITLE6=Throw Me Away
TTITLE7=When The Counting's Done
TTITLE8=Funny Way To Say Goodbye
TTITLE9=A Dream Or Two
TTITLE10=Dance With Me
TTITLE11=White Lies And Windows
TTITLE12=What Colour Is The Wind [Live]
TTITLE13=My Forever Friend [Live]
EXTD=
EXTT0=
EXTT1=
EXTT2=
EXTT3=
EXTT4=
EXTT5=
EXTT6=
EXTT7=
EXTT8=
EXTT9=
EXTT10=
EXTT11=
EXTT12=
EXTT13=
PLAYORDER=
